<svg xmlns="http://www.w3.org/2000/svg" viewBox="0 0 512 512">
  <defs>
    <linearGradient id="bgGrad" x1="0%" y1="0%" x2="100%" y2="100%">
      <stop offset="0%" style="stop-color:#f59e0b"/>
      <stop offset="100%" style="stop-color:#c2410c"/>
    </linearGradient>
    <linearGradient id="capyGrad" x1="0%" y1="0%" x2="100%" y2="100%">
      <stop offset="0%" style="stop-color:#b45309"/>
      <stop offset="100%" style="stop-color:#92400e"/>
    </linearGradient>
  </defs>
  
  <!-- Background rounded square -->
  <rect x="32" y="32" width="448" height="448" rx="80" fill="url(#bgGrad)"/>
  
  <!-- Paper/Document -->
  <rect x="180" y="100" width="200" height="280" rx="12" fill="white" opacity="0.95"/>
  <rect x="180" y="100" width="200" height="280" rx="12" fill="none" stroke="#fcd34d" stroke-width="3"/>
  
  <!-- Lines on paper -->
  <line x1="200" y1="150" x2="360" y2="150" stroke="#e5e7eb" stroke-width="2"/>
  <line x1="200" y1="185" x2="340" y2="185" stroke="#e5e7eb" stroke-width="2"/>
  <line x1="200" y1="220" x2="350" y2="220" stroke="#e5e7eb" stroke-width="2"/>
  <line x1="200" y1="255" x2="320" y2="255" stroke="#e5e7eb" stroke-width="2"/>
  <line x1="200" y1="290" x2="355" y2="290" stroke="#e5e7eb" stroke-width="2"/>
  <line x1="200" y1="325" x2="300" y2="325" stroke="#e5e7eb" stroke-width="2"/>
  
  <!-- Red checkmarks -->
  <path d="M205 175 L215 185 L235 160" stroke="#ef4444" stroke-width="4" stroke-linecap="round" stroke-linejoin="round" fill="none"/>
  <path d="M205 245 L215 255 L235 230" stroke="#ef4444" stroke-width="4" stroke-linecap="round" stroke-linejoin="round" fill="none"/>
  
  <!-- A+ grade circle -->
  <circle cx="330" cy="130" r="25" fill="#22c55e" opacity="0.9"/>
  <text x="330" y="137" font-family="Arial, sans-serif" font-size="22" font-weight="bold" fill="white" text-anchor="middle">A+</text>
  
  <!-- Capybara silhouette/head (simplified) -->
  <ellipse cx="120" cy="300" rx="70" ry="60" fill="url(#capyGrad)"/>
  <ellipse cx="120" cy="320" rx="50" ry="35" fill="#92400e"/>
  <!-- Ear -->
  <ellipse cx="75" cy="255" rx="15" ry="20" fill="#92400e"/>
  <ellipse cx="75" cy="255" rx="10" ry="14" fill="#78350f"/>
  <!-- Eye -->
  <circle cx="95" cy="280" r="8" fill="#1f2937"/>
  <circle cx="92" cy="278" r="3" fill="white"/>
  <!-- Nose -->
  <ellipse cx="150" cy="310" rx="18" ry="12" fill="#78350f"/>
  <ellipse cx="145" cy="308" rx="4" ry="3" fill="#1f2937"/>
  <ellipse cx="155" cy="308" rx="4" ry="3" fill="#1f2937"/>
  <!-- Glasses -->
  <circle cx="95" cy="280" r="18" fill="none" stroke="#1f2937" stroke-width="3"/>
  <line x1="113" y1="280" x2="130" y2="275" stroke="#1f2937" stroke-width="3"/>
  
  <!-- Pencil in mouth -->
  <rect x="140" y="330" width="100" height="12" rx="2" fill="#fbbf24" transform="rotate(-15, 140, 330)"/>
  <polygon points="240,318 240,332 255,325" fill="#f59e0b" transform="rotate(-15, 240, 325)"/>
  <rect x="140" y="330" width="15" height="12" rx="2" fill="#f97316" transform="rotate(-15, 140, 330)"/>
</svg>
